{"title":"Complete Joy - Light","uid":15532286,"size":353111269,"categoryP":"video","categoryS":"other","magnet":"?xt=urn:btih:0684f979ba9621d73a8075398940a7d771e605dd&amp;dn=Complete+Joy+-+Light&amp;tr=udp%3A%2F%2Ftracker.leechers-paradise.org%3A6969&amp;tr=udp%3A%2F%2Fzer0day.ch%3A1337&amp;tr=udp%3A%2F%2Fopen.demonii.com%3A1337&amp;tr=udp%3A%2F%2Ftracker.coppersurfer.tk%3A6969&amp;tr=udp%3A%2F%2Fexodus.desync.com%3A6969","seeders":0,"leechers":0,"uploader":"davidrpeet","files":1,"time":1470843238,"description":"Complete Joy - Light\r\nWeekly sermons from CrossRoads Church in Decatur, Texas\r\n\r\n+++++++++++++++++++++\r\n\r\n\r\nGeneral\r\nComplete name                            : 2016-08-07.mp4\r\nFormat                                   : MPEG-4\r\nFormat profile                           : Base Media / Version 2\r\nCodec ID                                 : mp42\r\nFile size                                : 337 MiB\r\nDuration                                 : 31mn 11s\r\nOverall bit rate mode                    : Variable\r\nOverall bit rate                         : 1 510 Kbps\r\nMovie name                               : Complete Joy - Light\r\nAlbum                                    : CrossRoads Church \r\nAlbum/Performer                          : Darren Embree\r\nPerformer                                : Darren Embree\r\nComposer                                 : http://crossroadspeople.com/\r\nGenre                                    : Speech\r\nRecorded date                            : 2016\r\nEncoded date                             : UTC 2016-08-08 05:03:24\r\nTagged date                              : UTC 2016-08-08 05:03:24\r\nCover                                    : Yes\r\nComment                                  : CrossRoads To Go Video Podcasts\r\n\r\nVideo\r\nID                                       : 1\r\nFormat                                   : AVC\r\nFormat/Info                              : Advanced Video Codec\r\nFormat profile                           :   \r\nFormat settings, CABAC                   : Yes\r\nFormat settings, ReFrames                : 4 frames\r\nCodec ID                                 : avc1\r\nCodec ID/Info                            : Advanced Video Coding\r\nDuration                                 : 31mn 11s\r\nBit rate                                 : 1 249 Kbps\r\nWidth                                    : 720 pixels\r\nHeight                                   : 540 pixels\r\nDisplay aspect ratio                     : 4:3\r\nFrame rate mode                          : Constant\r\nFrame rate                               : 29.970 fps\r\nColor space                              : YUV\r\nChroma subsampling                       : 4:2:0\r\nBit depth                                : 8 bits\r\nScan type                                : Progressive\r\nBits/(Pixel*Frame)                       : 0.107\r\nStream size                              : 279 MiB (83%)\r\nWriting library                          : x264 core 148 r10 3f5ed56\r\nEncoded date                             : UTC 2016-08-08 05:03:24\r\nTagged date                              : UTC 2016-08-08 05:03:24\r\nColor primaries                          : BT.601 NTSC\r\nTransfer characteristics                 : BT.470 System B, BT.470 System G\r\nMatrix coefficients                      : BT.601\r\n\r\nAudio\r\nID                                       : 2\r\nFormat                                   : AAC\r\nFormat/Info                              : Advanced Audio Codec\r\nFormat profile                           : LC\r\nCodec ID                                 : 40\r\nDuration                                 : 31mn 11s\r\nBit rate mode                            : Variable\r\nBit rate                                 : 256 Kbps\r\nChannel(s)                               : 2 channels\r\nChannel positions                        : Front: L R\r\nSampling rate                            : 48.0 KHz\r\nCompression mode                         : Lossy\r\nStream size                              : 57.1 MiB (17%)\r\nEncoded date                             : UTC 2016-08-08 05:03:24\r\nTagged date                              : UTC 2016-08-08 05:03:24","torrent":{"xt":"urn:btih:0684f979ba9621d73a8075398940a7d771e605dd","amp;dn":"Complete+Joy+-+Light","amp;tr":["udp%3A%2F%2Ftracker.leechers-paradise.org%3A6969","udp%3A%2F%2Fzer0day.ch%3A1337","udp%3A%2F%2Fopen.demonii.com%3A1337","udp%3A%2F%2Ftracker.coppersurfer.tk%3A6969","udp%3A%2F%2Fexodus.desync.com%3A6969"],"infoHash":"0684f979ba9621d73a8075398940a7d771e605dd","infoHashBuffer":{"type":"Buffer","data":[6,132,249,121,186,150,33,215,58,128,117,57,137,64,167,215,113,230,5,221]},"announce":[],"urlList":[]}}